{"accessors" : [{"bufferView" : 0, "byteOffset" : 0, "componentType" : 5123, "count" : 3264, "type" : "SCALAR", "max" : [2792], "min" : [0]}, {"bufferView" : 1, "byteOffset" : 0, "componentType" : 5126, "count" : 2793, "type" : "VEC3", "max" : [0.9999998211860657, 0.9999999403953552, 0.9999994039535522], "min" : [-0.9999991655349731, -0.14535309374332428, -0.9999988079071045], "name" : "POSITION"}, {"bufferView" : 1, "byteOffset" : 12, "componentType" : 5126, "count" : 2793, "type" : "VEC3", "max" : [0.9904429316520691, 0.9951428174972534, 0.9904430508613586], "min" : [-0.9904429316520691, -0.9951428771018982, -0.9904432892799377], "name" : "NORMAL"}, {"bufferView" : 1, "byteOffset" : 24, "componentType" : 5126, "count" : 2793, "type" : "VEC2", "max" : [1.0000001192092896, 0.5465659499168396], "min" : [0, 0], "name" : "TEXCOORD_0"}, {"bufferView" : 0, "byteOffset" : 6528, "componentType" : 5123, "count" : 2880, "type" : "SCALAR", "max" : [2431], "min" : [0]}, {"bufferView" : 2, "byteOffset" : 0, "componentType" : 5126, "count" : 2432, "type" : "VEC3", "max" : [0.9999997019767761, 1, 0.9999994039535522], "min" : [-0.9999990463256836, -1, -0.9999987483024597], "name" : "POSITION"}, {"bufferView" : 2, "byteOffset" : 12, "componentType" : 5126, "count" : 2432, "type" : "VEC3", "max" : [0.9904427528381348, 0.9951428771018982, 0.9904428124427795], "min" : [-0.9904428720474243, -0.9951428771018982, -0.9904432892799377], "name" : "NORMAL"}, {"bufferView" : 2, "byteOffset" : 24, "componentType" : 5126, "count" : 2432, "type" : "VEC2", "max" : [1.0000001192092896, 1], "min" : [0, 0], "name" : "TEXCOORD_0"}, {"bufferView" : 0, "byteOffset" : 12288, "componentType" : 5123, "count" : 2880, "type" : "SCALAR", "max" : [2431], "min" : [0]}, {"bufferView" : 3, "byteOffset" : 0, "componentType" : 5126, "count" : 2432, "type" : "VEC3", "max" : [0.9999997019767761, 1, 0.9999994039535522], "min" : [-0.9999990463256836, -1, -0.9999987483024597], "name" : "POSITION"}, {"bufferView" : 3, "byteOffset" : 12, "componentType" : 5126, "count" : 2432, "type" : "VEC3", "max" : [0.9904427528381348, 0.9951428771018982, 0.9904428124427795], "min" : [-0.9904428720474243, -0.9951428771018982, -0.9904432892799377], "name" : "NORMAL"}, {"bufferView" : 3, "byteOffset" : 24, "componentType" : 5126, "count" : 2432, "type" : "VEC2", "max" : [1.0000001192092896, 1], "min" : [0, 0], "name" : "TEXCOORD_0"}, {"bufferView" : 0, "byteOffset" : 18048, "componentType" : 5123, "count" : 372, "type" : "SCALAR", "max" : [311], "min" : [0]}, {"bufferView" : 4, "byteOffset" : 0, "componentType" : 5126, "count" : 312, "type" : "VEC3", "max" : [1, 1, 1], "min" : [-1, -1, -1], "name" : "POSITION"}, {"bufferView" : 4, "byteOffset" : 12, "componentType" : 5126, "count" : 312, "type" : "VEC3", "max" : [0.9951891303062439, 1.0000044107437134, 0.9951891303062439], "min" : [-0.9951891303062439, -1.0000042915344238, -0.9951891303062439], "name" : "NORMAL"}, {"bufferView" : 4, "byteOffset" : 24, "componentType" : 5126, "count" : 312, "type" : "VEC2", "max" : [1, 0.9900000095367432], "min" : [0, 0], "name" : "TEXCOORD_0"}, {"bufferView" : 0, "byteOffset" : 18792, "componentType" : 5123, "count" : 2880, "type" : "SCALAR", "max" : [2431], "min" : [0]}, {"bufferView" : 5, "byteOffset" : 0, "componentType" : 5126, "count" : 2432, "type" : "VEC3", "max" : [0.9999997019767761, 1, 0.9999994039535522], "min" : [-0.9999990463256836, -1, -0.9999987483024597], "name" : "POSITION"}, {"bufferView" : 5, "byteOffset" : 12, "componentType" : 5126, "count" : 2432, "type" : "VEC3", "max" : [0.9904427528381348, 0.9951428771018982, 0.9904428124427795], "min" : [-0.9904428720474243, -0.9951428771018982, -0.9904432892799377], "name" : "NORMAL"}, {"bufferView" : 5, "byteOffset" : 24, "componentType" : 5126, "count" : 2432, "type" : "VEC2", "max" : [1.0000001192092896, 1], "min" : [0, 0], "name" : "TEXCOORD_0"}], "asset" : {"generator" : "Aspose.3D 22.6", "version" : "2.0"}, "buffers" : [{"uri" : "data:application/octet-stream;base64,", "byteLength" : 417408}], "bufferViews" : [{"buffer" : 0, "byteOffset" : 0, "byteLength" : 24552, "target" : 34963}, {"buffer" : 0, "byteOffset" : 24556, "byteLength" : 104448, "byteStride" : 32, "target" : 34962}, {"buffer" : 0, "byteOffset" : 129008, "byteLength" : 92160, "byteStride" : 32, "target" : 34962}, {"buffer" : 0, "byteOffset" : 221172, "byteLength" : 92160, "byteStride" : 32, "target" : 34962}, {"buffer" : 0, "byteOffset" : 313336, "byteLength" : 11904, "byteStride" : 32, "target" : 34962}, {"buffer" : 0, "byteOffset" : 325244, "byteLength" : 92160, "byteStride" : 32, "target" : 34962}], "materials" : [{"name" : "Material.001", "pbrMetallicRoughness" : {"baseColorFactor" : [0.03451813384890556, 0.08404909819364548, 0.8000000715255737, 1], "metallicFactor" : 0, "roughnessFactor" : 0.5}, "emissiveFactor" : [0, 0, 0], "alphaMode" : "OPAQUE", "doubleSided" : true}, {"name" : "Material.003", "pbrMetallicRoughness" : {"baseColorFactor" : [0.8000000715255737, 0.002249752404168248, 0.002607970731332898, 1], "metallicFactor" : 0, "roughnessFactor" : 0.5}, "emissiveFactor" : [0, 0, 0], "alphaMode" : "OPAQUE", "doubleSided" : true}, {"name" : "Material.002", "pbrMetallicRoughness" : {"baseColorFactor" : [0.8000000715255737, 0, 0.0010200546821579337, 1], "metallicFactor" : 0, "roughnessFactor" : 0.5}, "emissiveFactor" : [0, 0, 0], "alphaMode" : "OPAQUE", "doubleSided" : true}], "meshes" : [{"primitives" : [{"attributes" : {"POSITION" : 1, "NORMAL" : 2, "TEXCOORD_0" : 3}, "indices" : 0, "material" : 0, "mode" : 4}]}, {"primitives" : [{"attributes" : {"POSITION" : 5, "NORMAL" : 6, "TEXCOORD_0" : 7}, "indices" : 4, "material" : 1, "mode" : 4}]}, {"primitives" : [{"attributes" : {"POSITION" : 9, "NORMAL" : 10, "TEXCOORD_0" : 11}, "indices" : 8, "material" : 2, "mode" : 4}]}, {"primitives" : [{"attributes" : {"POSITION" : 13, "NORMAL" : 14, "TEXCOORD_0" : 15}, "indices" : 12, "mode" : 4}]}, {"primitives" : [{"attributes" : {"POSITION" : 17, "NORMAL" : 18, "TEXCOORD_0" : 19}, "indices" : 16, "mode" : 4}]}], "nodes" : [{"matrix" : [17.517391204833984, 0, 0, 0, 0, 11.13991928100586, 0, 0, 0, 0, 19.28254508972168, 0, 24.764141082763672, 8.631094932556152, 5.298798084259033, 1], "mesh" : 0, "name" : "Sphere"}, {"matrix" : [1, 0, 0, 0, 0, 1.8912925720214844, 0, 0, 0, 0, 1.841564655303955, 0, 25.05598258972168, 20.616289138793945, 5.386776924133301, 1], "mesh" : 1, "name" : "Sphere.001"}, {"matrix" : [2.1009016036987305, 0, 0, 0, 0, 1.2699998617172241, 0, 0, 0, 0, 2.142991065979004, 0, 25.256122589111328, -45.9288330078125, 5.210581302642822, 1], "mesh" : 2, "name" : "Sphere.002"}, {"matrix" : [-0.7599110007286072, 0, 0, 0, 0, 30.827556610107422, 0, 0, 0, 0, 0.6507437825202942, 0, 25.432771682739258, -14.448336601257324, 5.377899646759033, 1], "mesh" : 3, "name" : "Cylinder"}, {"matrix" : [12.167973518371582, 0, 0, 0, 0, 11.550111770629883, 0, 0, 0, 0, 11.199999809265137, 0, 25.747568130493164, 9.076166152954102, 5.433252334594727, 1], "mesh" : 4, "name" : "Sphere.003"}], "scene" : 0, "scenes" : [{"nodes" : [0, 1, 2, 3, 4]}]}